PathFileType	4	(X/Y/Z)	Walk8.trc
DataRate	CameraRate	NumFrames	NumMarkers	Units	OrigDataRate	OrigDataStartFrame	OrigNumFrames
200.000000	200.000000	4	59	mm	200.000000	318	625
Frame#	Times		LFHD		RFHD		CLAV		STRN		LASI		RASI		RACR1		RUA1		RElbow		RFA1		RWRR		RWRU		RCAR		LACR1		LUA1		LElbow		LFA1		LWRR		RTB1		RTB2		LTH1		LTH3		LTH2		LMFC		LTB1		LTB2		LMT1		RTH2		LTB4		LLFC		LCAR		LWRU		LTB3		LMT5		LToe		RTB4		RTH3		RTB3		RMFC		LTH4		RTH1		RTH4		RMMAL		RBHD		RElbowM		RLFC		RToe		RBack		RMT1		RCAL		LLMAL		LElbowM		LMMAL		RPSI		C7		T10		LPSI		LBHD		LCAL
			X1	Y1	Z1	X2	Y2	Z2	X3	Y3	Z3	X4	Y4	Z4	X5	Y5	Z5	X6	Y6	Z6	X7	Y7	Z7	X8	Y8	Z8	X9	Y9	Z9	X10	Y10	Z10	X11	Y11	Z11	X12	Y12	Z12	X13	Y13	Z13	X14	Y14	Z14	X15	Y15	Z15	X16	Y16	Z16	X17	Y17	Z17	X18	Y18	Z18	X19	Y19	Z19	X20	Y20	Z20	X21	Y21	Z21	X22	Y22	Z22	X23	Y23	Z23	X24	Y24	Z24	X25	Y25	Z25	X26	Y26	Z26	X27	Y27	Z27	X28	Y28	Z28	X29	Y29	Z29	X30	Y30	Z30	X31	Y31	Z31	X32	Y32	Z32	X33	Y33	Z33	X34	Y34	Z34	X35	Y35	Z35	X36	Y36	Z36	X37	Y37	Z37	X38	Y38	Z38	X39	Y39	Z39	X40	Y40	Z40	X41	Y41	Z41	X42	Y42	Z42	X43	Y43	Z43	X44	Y44	Z44	X45	Y45	Z45	X46	Y46	Z46	X47	Y47	Z47	X48	Y48	Z48	X49	Y49	Z49	X50	Y50	Z50	X51	Y51	Z51	X52	Y52	Z52	X53	Y53	Z53	X54	Y54	Z54	X55	Y55	Z55	X56	Y56	Z56	X57	Y57	Z57	X58	Y58	Z58	X59	Y59	Z59

318	1.59	-217.88	1664.6	36.248	-212.8	1649.8	-62.143	-196.21	1397.5	22.891	-126.35	1241.7	38.66	-230.79	981.87	-123.83	-235.63	987.36	226.81	-318.71	1494.8	183.12	-331.38	1339.9	317.5	-306.24	1200.4	380.67	-236.1	1066.4	389.66	-192.85	958.5	314.75	-189.35	962.83	396.25	-140.04	889.35	357.58	-309.48	1441.1	-164.26	-355.19	1264.9	-236.14	-385.98	1101.5	-274.05	-370.66	961.32	-281.51	-316.6	839.25	-223.62	-384.14	357.58	202.81	-472.64	326.86	250.81	-252.44	756.7	-148.19	-200.15	595.82	-121.2	-171.84	696.61	-122.22	-169.99	512.41	38.417	-119.1	396.39	-52.566	-154.66	303.69	-84.937	-68.916	37.371	1.7402	-273.54	682.04	265.55	-123.89	314.51	-31.752	-198.71	511.68	-117.31	-310.64	753.8	-258.63	-369.62	822.04	-272.98	-136.89	229.75	-13.319	-138.64	25.82	-73.691	-18.527	29.964	-39.465	-458.61	313.33	192.89	-322.29	589.94	278.32	-531.91	268.7	182.67	-333.01	474.73	119.61	-227.52	676.7	-134.52	-338.75	761.56	280.23	-329.66	675.46	279.37	-662.67	221.49	120.98	-354.77	1558	-69.004	-350.73	1116.4	291.79	-352.11	486.95	275.32	-628.7	40.915	181.54	-456.11	1364.5	141.37	-653.18	78.501	140.92	-743.99	276.17	154.53	-231.58	74.172	-6.6401	-442.34	1054.3	-170.99	-200.87	85.194	76.951	-494.57	1015.4	81.101	-393.78	1471	12.065	-449.78	1156.5	44.585	-480.31	1022.8	-3.5651	-349.28	1585.1	76.538	-278.54	48.491	53.336
319	1.595	-211.56	1665.9	35.746	-206.43	1651.2	-62.637	-189.98	1398.7	22.245	-120.27	1242.8	37.874	-225.21	983.14	-124.75	-229.35	988.89	226.28	-312.37	1496.1	182.52	-325.77	1341.1	316.76	-301.09	1201.4	379.85	-231.88	1066.7	389.06	-189.38	958.37	314.37	-185.99	962.78	395.88	-137.24	888.82	357.37	-303.06	1442.7	-164.88	-347.62	1266.1	-236.98	-377.07	1102.4	-275.03	-360.43	962.41	-282.54	-304.92	840.96	-224.9	-370.59	359.36	202.7	-458.99	328.33	250.68	-248.24	757.24	-148.68	-197.23	595.97	-121.57	-168.11	696.5	-122.62	-167.83	512.29	38.178	-117.49	396.02	-52.801	-153.5	303.47	-85.117	-68.896	37.399	1.6232	-263.05	684.25	265.2	-122.66	314.18	-31.936	-196.44	511.76	-117.55	-297.9	755.8	-260.17	-357.92	823.19	-274.05	-136.07	229.5	-13.452	-138.68	25.77	-73.738	-18.258	29.403	-39.758	-444.96	314.97	192.71	-310.56	591.53	278.26	-518.14	270.23	182.39	-320.25	476.41	119.63	-223.96	677.06	-134.93	-329.31	762.93	279.81	-319.06	676.96	279.16	-648.79	222.75	120.74	-348.41	1559.4	-69.628	-345.94	1117.6	290.94	-339.11	488.62	275.34	-613.07	42.852	181.46	-449.92	1365.9	140.58	-637.79	80.086	140.95	-730.66	276.77	154.33	-231.41	74.317	-6.6367	-433.1	1054.6	-171.99	-200.65	85.287	76.938	-488.38	1016.6	80.696	-387.49	1472.4	11.47	-443.64	1157.9	43.904	-474.51	1024.3	-3.9387	-342.98	1586.5	75.934	-278.47	48.701	53.393
320	1.6	-205.25	1667.1	35.287	-200.07	1652.5	-63.089	-183.79	1399.9	21.628	-114.22	1244	37.115	-219.67	984.4	-125.65	-223.15	990.43	225.83	-306.09	1497.4	181.96	-320.18	1342.3	316.05	-295.95	1202.3	379.06	-227.7	1067.1	388.49	-185.95	958.21	314.04	-182.66	962.72	395.55	-134.46	888.29	357.22	-296.69	1444.2	-165.48	-340.08	1267.3	-237.8	-368.15	1103.3	-276.01	-350.16	963.53	-283.56	-293.23	842.71	-226.15	-356.98	361.17	202.59	-445.26	329.74	250.52	-244.1	757.77	-149.15	-194.36	596.11	-121.92	-164.45	696.38	-123.02	-165.68	512.19	37.949	-115.92	395.66	-53.034	-152.37	303.26	-85.292	-68.876	37.423	1.5042	-252.63	686.55	264.86	-121.47	313.86	-32.119	-194.22	511.85	-117.78	-285.14	757.83	-261.67	-346.17	824.36	-275.12	-135.27	229.26	-13.585	-138.71	25.719	-73.785	-17.996	28.861	-40.036	-431.17	316.53	192.53	-298.9	593.23	278.19	-504.18	271.57	182.1	-307.56	478.18	119.63	-220.46	677.42	-135.33	-319.94	764.38	279.39	-308.54	678.54	278.94	-634.61	223.64	120.43	-342.08	1560.8	-70.219	-341.19	1118.7	290.12	-326.18	490.37	275.33	-596.78	44.681	181.36	-443.78	1367.2	139.82	-621.83	81.379	140.96	-717.14	276.83	154.01	-231.24	74.47	-6.6304	-423.85	1055	-173	-200.42	85.386	76.926	-482.21	1017.8	80.302	-381.24	1473.8	10.91	-437.52	1159.3	43.234	-468.74	1025.7	-4.2873	-336.7	1587.8	75.359	-278.39	48.92	53.456
321	1.605	-198.94	1668.4	34.868	-193.71	1653.8	-63.5	-177.63	1401.2	21.039	-108.19	1245.1	36.384	-214.17	985.62	-126.56	-217.01	991.96	225.46	-299.87	1498.6	181.43	-314.6	1343.5	315.35	-290.84	1203.2	378.28	-223.55	1067.3	387.96	-182.55	958.02	313.75	-179.38	962.64	395.26	-131.72	887.75	357.14	-290.39	1445.8	-166.06	-332.59	1268.5	-238.62	-359.2	1104.2	-276.98	-339.86	964.66	-284.58	-281.51	844.49	-227.38	-343.33	363	202.49	-431.46	331.08	250.33	-240.02	758.28	-149.62	-191.56	596.24	-122.25	-160.84	696.24	-123.43	-163.55	512.08	37.73	-114.39	395.32	-53.263	-151.28	303.07	-85.461	-68.855	37.443	1.3846	-242.3	688.91	264.54	-120.31	313.55	-32.3	-192.05	511.93	-117.99	-272.36	759.89	-263.11	-334.37	825.56	-276.18	-134.48	229.03	-13.717	-138.74	25.672	-73.833	-17.742	28.346	-40.296	-417.28	318.01	192.34	-287.33	595.01	278.09	-490.04	272.72	181.79	-294.94	480.02	119.63	-217.02	677.76	-135.71	-310.65	765.9	278.99	-298.1	680.19	278.71	-620.16	224.14	120.07	-335.77	1562.2	-70.778	-336.47	1119.8	289.32	-313.34	492.21	275.29	-579.86	46.391	181.27	-437.66	1368.5	139.09	-605.34	82.383	140.98	-703.45	276.38	153.59	-231.07	74.631	-6.6196	-414.59	1055.3	-174.02	-200.18	85.491	76.916	-476.06	1019	79.918	-375.04	1475.1	10.38	-431.43	1160.7	42.571	-463.01	1027.1	-4.6139	-330.44	1589.1	74.813	-278.3	49.146	53.527
